<svg width="21" height="20" viewBox="0 0 21 20" fill="none" xmlns="http://www.w3.org/2000/svg">
<g clip-path="url(#clip0_8_56)">
<path d="M19.8146 10.2222C19.8146 9.39995 19.7489 8.79995 19.6066 8.17773H10.3545V11.8888H15.7853C15.6758 12.8111 15.0846 14.1999 13.7706 15.1332L13.7522 15.2575L16.6775 17.5572L16.8802 17.5777C18.7416 15.8333 19.8146 13.2666 19.8146 10.2222Z" fill="#4285F4"/>
<path d="M10.3545 19.9997C13.0151 19.9997 15.2487 19.1108 16.8802 17.5775L13.7706 15.133C12.9385 15.7219 11.8216 16.133 10.3545 16.133C7.74857 16.133 5.53685 14.3886 4.74843 11.9775L4.63286 11.9875L1.59105 14.3764L1.55127 14.4886C3.17174 17.7552 6.50031 19.9997 10.3545 19.9997Z" fill="#34A853"/>
<path d="M4.74826 11.9773C4.54023 11.3551 4.41983 10.6883 4.41983 9.99948C4.41983 9.31055 4.54023 8.64391 4.73731 8.0217L4.7318 7.88918L1.65187 5.46191L1.5511 5.51055C0.883227 6.86613 0.5 8.38838 0.5 9.99948C0.5 11.6106 0.883227 13.1328 1.5511 14.4883L4.74826 11.9773Z" fill="#FBBC05"/>
<path d="M10.3545 3.86664C12.2049 3.86664 13.453 4.67775 14.1648 5.35557L16.9459 2.6C15.2378 0.988893 13.0151 0 10.3545 0C6.50031 0 3.17174 2.24443 1.55127 5.51107L4.73748 8.02221C5.53685 5.6111 7.74857 3.86664 10.3545 3.86664Z" fill="#EB4335"/>
</g>
<defs>
<clipPath id="clip0_8_56">
<rect width="20" height="20" fill="white" transform="translate(0.5)"/>
</clipPath>
</defs>
</svg>
